<?xml version="1.0" encoding="utf-8"?>
<!-- Generator: Adobe Illustrator 22.0.1, SVG Export Plug-In . SVG Version: 6.00 Build 0)  -->
<svg version="1.1" id="Vrstva_1" xmlns="http://www.w3.org/2000/svg" xmlns:xlink="http://www.w3.org/1999/xlink" x="0px" y="0px"
	 viewBox="0 0 512 512" style="enable-background:new 0 0 512 512;" xml:space="preserve">
<g>
	<path d="M183.1,73c0,0.3,0.1,0.6,0.3,0.8l13.7,13.7c0.2,0.2,0.4,0.5,0.4,0.8l0,0c0.1,0.6-0.1,1.3-0.7,1.7l-43.7,29.6
		c-1.7,1.1-3.8,1-5.4-0.2l-31.7-25.7c-2.2-1.8-5-2.6-7.7-2.3l-5.5,0.6c-1.2,0.1-2.3,0.5-3.3,1.2l-1.6,1c-1,0.6-1.8,1.5-2.5,2.5
		l-1,1.6c-0.6,1-1,2.1-1.2,3.3l-0.6,5.5c-0.3,2.8,0.5,5.6,2.3,7.7l25.7,31.7c1.3,1.6,1.3,3.7,0.2,5.4l-29.6,43.7
		c-0.4,0.5-1,0.8-1.7,0.7h0c-0.3-0.1-0.6-0.2-0.8-0.4L75.2,182c-0.2-0.2-0.5-0.3-0.8-0.3h0c-1.1,0-1.6,1.3-0.8,2l31.9,31.9
		c0.6,0.6,1.6,0.3,1.8-0.6l0,0c0.1-0.4,0.3-0.7,0.7-0.8l67.7-22.4c1.4-0.5,2.9,0.1,3.7,1.3l0.4,0.6c1.2,1.7,3.6,1.9,5.1,0.5l5.4-5.4
		l5.4-5.4c1.5-1.5,1.2-3.9-0.5-5.1l-0.6-0.4c-1.2-0.8-1.7-2.3-1.3-3.7l22.4-67.7c0.1-0.4,0.4-0.6,0.8-0.7l0,0
		c0.8-0.1,1.2-1.2,0.6-1.8l-31.9-31.9C184.4,71.4,183.1,71.9,183.1,73L183.1,73z"/>
	<path d="M230.1,228.7L230.1,228.7l-33.9-27.1c-2.3-1.8-2.5-5.2-0.4-7.2l0,0c2.1-2.1,5.4-1.9,7.2,0.4L230.1,228.7z"/>
</g>
<g>
	<path d="M225.9,287.2c0,0.3,0.1,0.6,0.3,0.8l13.7,13.7c0.2,0.2,0.4,0.5,0.4,0.8l0,0c0.1,0.6-0.1,1.3-0.7,1.7l-43.7,29.6
		c-1.7,1.1-3.8,1-5.4-0.2l-31.7-25.7c-2.2-1.8-5-2.6-7.7-2.3l-5.5,0.6c-1.2,0.1-2.3,0.5-3.3,1.2l-1.6,1c-1,0.6-1.8,1.5-2.5,2.5
		l-1,1.6c-0.6,1-1,2.1-1.2,3.3l-0.6,5.5c-0.3,2.8,0.5,5.6,2.3,7.7l25.7,31.7c1.3,1.6,1.3,3.7,0.2,5.4l-29.6,43.7
		c-0.4,0.5-1,0.8-1.7,0.7l0,0c-0.3-0.1-0.6-0.2-0.8-0.4L118,396.2c-0.2-0.2-0.5-0.3-0.8-0.3l0,0c-1.1,0-1.6,1.3-0.8,2l31.9,31.9
		c0.6,0.6,1.6,0.3,1.8-0.6l0,0c0.1-0.4,0.3-0.7,0.7-0.8l67.7-22.4c1.4-0.5,2.9,0.1,3.7,1.3l0.4,0.6c1.2,1.7,3.6,1.9,5.1,0.5l5.4-5.4
		l5.4-5.4c1.5-1.5,1.2-3.9-0.5-5.1l-0.6-0.4c-1.2-0.8-1.7-2.3-1.3-3.7l22.4-67.7c0.1-0.4,0.4-0.6,0.8-0.7l0,0
		c0.8-0.1,1.2-1.2,0.6-1.8l-31.9-31.9C227.1,285.6,225.9,286.1,225.9,287.2L225.9,287.2z"/>
	<path d="M272.9,442.9L272.9,442.9L239,415.9c-2.3-1.8-2.5-5.2-0.4-7.2l0,0c2.1-2.1,5.4-1.9,7.2,0.4L272.9,442.9z"/>
</g>
<g>
	<path d="M398.2,115.7c0,0.3,0.1,0.6,0.3,0.8l13.7,13.7c0.2,0.2,0.4,0.5,0.4,0.8l0,0c0.1,0.6-0.1,1.3-0.7,1.7l-43.7,29.6
		c-1.7,1.1-3.8,1-5.4-0.2l-31.7-25.7c-2.2-1.8-5-2.6-7.7-2.3l-5.5,0.6c-1.2,0.1-2.3,0.5-3.3,1.2l-1.6,1c-1,0.6-1.8,1.5-2.5,2.5
		l-1,1.6c-0.6,1-1,2.1-1.2,3.3l-0.6,5.5c-0.3,2.8,0.5,5.6,2.3,7.7l25.7,31.7c1.3,1.6,1.3,3.7,0.2,5.4l-29.6,43.7
		c-0.4,0.5-1,0.8-1.7,0.7l0,0c-0.3-0.1-0.6-0.2-0.8-0.4l-13.7-13.7c-0.2-0.2-0.5-0.3-0.8-0.3l0,0c-1.1,0-1.6,1.3-0.8,2l31.9,31.9
		c0.6,0.6,1.6,0.3,1.8-0.6l0,0c0.1-0.4,0.3-0.7,0.7-0.8l67.7-22.4c1.4-0.5,2.9,0.1,3.7,1.3l0.4,0.6c1.2,1.7,3.6,1.9,5.1,0.5l5.4-5.4
		l5.4-5.4c1.5-1.5,1.2-3.9-0.5-5.1l-0.6-0.4c-1.2-0.8-1.7-2.3-1.3-3.7l22.4-67.7c0.1-0.4,0.4-0.6,0.8-0.7l0,0
		c0.8-0.1,1.2-1.2,0.6-1.8l-31.9-31.9C399.5,114.1,398.2,114.7,398.2,115.7L398.2,115.7z"/>
	<path d="M445.2,271.5L445.2,271.5l-33.9-27.1c-2.3-1.8-2.5-5.2-0.4-7.2l0,0c2.1-2.1,5.4-1.9,7.2,0.4L445.2,271.5z"/>
</g>
</svg>
