<?xml version="1.0" encoding="utf-8"?>
<!-- Generator: Adobe Illustrator 22.0.1, SVG Export Plug-In . SVG Version: 6.00 Build 0)  -->
<svg version="1.1" id="Vrstva_1" xmlns="http://www.w3.org/2000/svg" xmlns:xlink="http://www.w3.org/1999/xlink" x="0px" y="0px"
	 viewBox="0 0 512 512" style="enable-background:new 0 0 512 512;" xml:space="preserve">
<style type="text/css">
	.st0{fill:#FFFFFF;}
</style>
<g>
	<path class="st0" d="M303.2,98.5c0,0.6,0.2,1.1,0.6,1.6l25.5,25.5c0.4,0.4,0.7,0.9,0.8,1.5v0c0.3,1.2-0.2,2.4-1.3,3.1l-81.7,55.3
		c-3.1,2.1-7.2,1.9-10.1-0.4l-59.3-48c-4.1-3.3-9.3-4.8-14.5-4.2l-10.3,1.2c-2.2,0.2-4.3,1-6.1,2.2L144,138
		c-1.9,1.2-3.4,2.7-4.6,4.6l-1.8,2.9c-1.2,1.9-1.9,4-2.2,6.1l-1.2,10.3c-0.6,5.2,0.9,10.4,4.2,14.5l48,59.3c2.3,2.9,2.5,7,0.4,10.1
		l-55.3,81.7c-0.7,1-1.9,1.5-3.1,1.3l0,0c-0.6-0.1-1.1-0.4-1.5-0.8l-25.5-25.5c-0.4-0.4-1-0.6-1.6-0.6l0,0c-2,0-3,2.4-1.6,3.8
		l59.6,59.6c1.1,1.1,3,0.5,3.3-1l0,0c0.1-0.7,0.6-1.3,1.3-1.5l126.6-41.9c2.6-0.8,5.4,0.1,6.9,2.3l0.8,1.2c2.2,3.2,6.8,3.6,9.5,0.9
		l10.1-10.1l10.1-10.1c2.8-2.8,2.3-7.3-0.9-9.5l-1.2-0.8c-2.2-1.5-3.2-4.3-2.3-6.9L364,161.1c0.2-0.7,0.8-1.2,1.5-1.3l0,0
		c1.5-0.3,2.2-2.2,1-3.3L307,97C305.6,95.6,303.2,96.5,303.2,98.5L303.2,98.5z"/>
	<path class="st0" d="M391.1,389.7L391.1,389.7l-63.4-50.6c-4.2-3.4-4.6-9.7-0.8-13.5l0,0c3.8-3.8,10.1-3.5,13.5,0.8L391.1,389.7z"
		/>
</g>
</svg>
